<?xml version="1.0" encoding="UTF-8"?>
<svg version="1.1" xmlns="http://www.w3.org/2000/svg" width="600" height="143">
<path d="M0 0 C45.87 0 91.74 0 139 0 C139 45.87 139 91.74 139 139 C93.13 139 47.26 139 0 139 C0 93.13 0 47.26 0 0 Z " fill="#2C2D2D" transform="translate(3,2)"/>
<path d="M0 0 C6.6 0 13.2 0 20 0 C20.33 8.58 20.66 17.16 21 26 C26.32870412 20.73765857 26.32870412 20.73765857 31.3125 15.25 C31.90675781 14.59515625 32.50101563 13.9403125 33.11328125 13.265625 C35.1105461 10.96940543 35.1105461 10.96940543 36.85546875 8.046875 C39.98941477 3.59427409 42.24572829 0.49556968 47.70019531 -0.48583984 C54.48329286 -0.95920516 61.23521672 -0.60475369 68 0 C64.90359893 4.24443249 61.88927802 8.37548298 58.0625 12 C52.2786645 17.62930554 47.13180351 23.77963211 42 30 C43.54200135 34.86607612 46.35692828 38.20250704 49.5625 42.0625 C50.64863432 43.39330933 51.73325269 44.72535724 52.81640625 46.05859375 C53.35410645 46.71972168 53.89180664 47.38084961 54.44580078 48.06201172 C57.41964996 51.77021385 60.2364303 55.59244552 63.0625 59.4140625 C64.41206673 61.21529874 65.81255758 62.97901902 67.25 64.7109375 C69 67 69 67 69 69 C48.64274746 71.05420091 48.64274746 71.05420091 42.99462891 67.86914062 C39.37621222 64.53114278 37.27907074 60.30758825 35 56 C33.66345973 54.19996228 32.29274166 52.42430289 30.875 50.6875 C30.31554687 49.96949219 29.75609375 49.25148437 29.1796875 48.51171875 C28.79039062 48.01285156 28.40109375 47.51398438 28 47 C25.10701204 48.29685667 23.03589433 49.55372067 21 52 C20.50176904 53.91965648 20.50176904 53.91965648 20.48828125 56.01171875 C20.45516846 56.69451904 20.42205566 57.37731934 20.38793945 58.08081055 C20.35059692 59.37112183 20.35059692 59.37112183 20.3125 60.6875 C20.209375 63.430625 20.10625 66.17375 20 69 C13.4 69 6.8 69 0 69 C0 46.23 0 23.46 0 0 Z " fill="#313131" transform="translate(162,39)"/>
<path d="M0 0 C6.27 0 12.54 0 19 0 C19.33 7.26 19.66 14.52 20 22 C21.65 21.01 23.3 20.02 25 19 C32.51676464 16.82409445 39.93337107 17.88139381 47 21 C53.74722678 25.37470278 57.36104417 30.80997319 59.75 38.375 C60.68099599 48.15045794 59.99385904 56.92287007 54.4375 65.3125 C49.76862913 70.92653254 44.47782366 73.62518792 37.23046875 74.40625 C30.58632852 74.56273613 25.83146227 74.4220557 20 71 C19.505 70.505 19.505 70.505 19 70 C18.67 70.99 18.34 71.98 18 73 C12.06 73 6.12 73 0 73 C0 48.91 0 24.82 0 0 Z M21 38 C18.67335407 41.91299544 18.60664775 45.51578435 19 50 C20.35711515 53.92055488 21.38387794 55.57556036 24.8125 57.9375 C28.54084542 59.18028181 30.28531588 59.26457332 34 58 C38.41838423 54.26816232 38.41838423 54.26816232 40.203125 49.01171875 C40.30046929 44.18506418 40.27193341 40.83605986 37 37 C34.48665877 35.0819238 32.67170184 34.12056187 29.5625 33.5625 C25.92294558 34.18388734 23.83491579 35.66906924 21 38 Z " fill="#323232" transform="translate(484,35)"/>
<path d="M0 0 C-1.56448671 5.6143991 -3.16395187 10.86810338 -6 16 C-6.66644531 15.72285156 -7.33289063 15.44570313 -8.01953125 15.16015625 C-15.81719837 12.09561854 -23.37632476 9.82448935 -31.6875 11.9375 C-32.450625 12.288125 -33.21375 12.63875 -34 13 C-34.33 14.98 -34.66 16.96 -35 19 C-33.98421875 19.24234375 -32.9684375 19.4846875 -31.921875 19.734375 C-5.67788383 26.07696621 -5.67788383 26.07696621 0 33 C3.24111577 38.64581456 3.82910273 43.75694483 2.6015625 50.0390625 C0.82762261 56.00595123 -2.91373381 59.57585294 -8 63 C-21.67467382 69.86247418 -37.02099703 67.54317596 -51 63 C-53.02225445 62.04580561 -55.03130433 61.0603006 -57 60 C-56.37183502 56.05050296 -55.1354471 52.80107972 -53.4375 49.1875 C-52.98246094 48.21167969 -52.52742188 47.23585937 -52.05859375 46.23046875 C-51.70925781 45.49441406 -51.35992187 44.75835937 -51 44 C-47.94831716 45.01722761 -44.89715762 46.03496131 -41.8515625 47.0703125 C-34.51022972 49.47002176 -28.70035276 51.20009007 -21.0625 49.25 C-18.81928535 48.17891996 -18.81928535 48.17891996 -18.1875 45.875 C-18.0946875 44.946875 -18.0946875 44.946875 -18 44 C-24.05649056 40.59385389 -30.51071588 39.11429537 -37.21289062 37.42578125 C-44.06783665 35.58532912 -49.54121935 33.36033355 -53.875 27.4375 C-56.62707676 21.47466701 -56.90612216 15.23014686 -55 8.9375 C-52.67892392 3.40178803 -48.20155003 -0.33835902 -42.9453125 -3.06640625 C-29.37624203 -8.53099299 -12.70936121 -6.87460902 0 0 Z " fill="#323232" transform="translate(407,43)"/>
<path d="M0 0 C6.6 0 13.2 0 20 0 C21.54914707 3.78992323 23.09770843 7.58007756 24.64477539 11.37084961 C25.17112311 12.66005301 25.69781305 13.94911675 26.22485352 15.23803711 C26.98283647 17.09191626 27.73948248 18.94634186 28.49609375 20.80078125 C28.95169678 21.91622314 29.4072998 23.03166504 29.87670898 24.1809082 C30.6410028 26.09903486 31.34705629 28.04116887 32 30 C35.60845017 22.45052361 38.71192005 14.75149037 41.67602539 6.93212891 C43.90002511 1.09997489 43.90002511 1.09997489 45 0 C46.34267413 -0.08631874 47.68974322 -0.10706473 49.03515625 -0.09765625 C49.84404297 -0.09443359 50.65292969 -0.09121094 51.48632812 -0.08789062 C52.33646484 -0.07951172 53.18660156 -0.07113281 54.0625 -0.0625 C54.91650391 -0.05798828 55.77050781 -0.05347656 56.65039062 -0.04882812 C58.76695663 -0.03700373 60.88348685 -0.01906769 63 0 C62.38210752 5.44115901 60.54072329 9.99732549 58.4296875 14.9921875 C58.0703714 15.85578888 57.7110553 16.71939026 57.34085083 17.60916138 C56.19149636 20.3669602 55.03323882 23.12092255 53.875 25.875 C53.11923942 27.6872698 52.36402609 29.49976792 51.609375 31.3125 C49.42504494 36.5496891 47.2162083 41.77623594 45 47 C44.6649646 47.79397186 44.3299292 48.58794373 43.98474121 49.40597534 C43.05126228 51.61344735 42.10925799 53.81705501 41.1640625 56.01953125 C40.75859695 56.98166031 40.75859695 56.98166031 40.34494019 57.96322632 C37.487806 64.55831556 33.94814622 69.03456919 28 73 C21.445871 75.27388149 12.78591323 75.24225278 6.25 73.09765625 C4.0625 72 4.0625 72 1 70 C1.58107632 66.2397015 2.65199496 63.46964968 4.5625 60.1875 C5.01753906 59.39730469 5.47257812 58.60710937 5.94140625 57.79296875 C6.29074219 57.20128906 6.64007813 56.60960937 7 56 C8.546875 56.5259375 8.546875 56.5259375 10.125 57.0625 C13.9798964 57.99513623 16.20172226 57.92640921 20 57 C21.091642 53.74947155 20.94667176 52.07941407 19.61645508 48.94091797 C19.28893753 48.15264618 18.96141998 47.36437439 18.62397766 46.55221558 C18.25951035 45.70740631 17.89504303 44.86259705 17.51953125 43.9921875 C17.15027023 43.11152618 16.78100922 42.23086487 16.40055847 41.32351685 C15.21512185 38.50274419 14.01421694 35.68887014 12.8125 32.875 C12.02172919 31.00305044 11.2320038 29.13065889 10.44335938 27.2578125 C9.32291441 24.59739938 8.20112538 21.93767577 7.070755 19.28146362 C5.26556243 15.03673359 3.48368949 10.78299977 1.7409668 6.51220703 C1.40711472 5.69575714 1.07326263 4.87930725 0.72929382 4.03811646 C0 2 0 2 0 0 Z " fill="#323232" transform="translate(287,54)"/>
<path d="M0 0 C6.27 0 12.54 0 19 0 C19.03738281 2.25199219 19.07476562 4.50398438 19.11328125 6.82421875 C19.15954821 9.01531454 19.21076279 11.20624298 19.26245117 13.3972168 C19.29561916 14.91501621 19.32367632 16.43293656 19.34643555 17.95092773 C19.38013278 20.13838019 19.43245204 22.32473264 19.48828125 24.51171875 C19.51446533 25.82615967 19.54064941 27.14060059 19.56762695 28.49487305 C20.02207311 32.1789405 20.63736938 34.15077717 23 37 C27.52319345 37.64617049 29.71708705 37.92106571 33.4375 35.25 C36.27569415 31.16300042 36.16617967 27.1587192 36.31640625 22.265625 C36.37924805 20.32236328 36.37924805 20.32236328 36.44335938 18.33984375 C36.48316671 16.97656524 36.52287906 15.61328394 36.5625 14.25 C36.60572274 12.87108125 36.64933821 11.49217474 36.69335938 10.11328125 C36.79943899 6.74230694 36.90022365 3.37116677 37 0 C43.27 0 49.54 0 56 0 C56 17.82 56 35.64 56 54 C50.06 54 44.12 54 38 54 C37.67 53.01 37.34 52.02 37 51 C35.96875 51.66 34.9375 52.32 33.875 53 C27.33654815 56.25759167 19.46958705 56.24116458 12.49609375 54.3046875 C6.9688343 51.80850581 3.27505077 47.98734116 0.87939453 42.37451172 C-0.22767397 38.12634382 -0.25016282 34.25119863 -0.1953125 29.8828125 C-0.1924826 29.02565643 -0.18965271 28.16850037 -0.18673706 27.28536987 C-0.17559999 24.56510068 -0.1505076 21.84516859 -0.125 19.125 C-0.11496182 17.27344228 -0.10583744 15.42187936 -0.09765625 13.5703125 C-0.07738891 9.04664268 -0.03822842 4.52369581 0 0 Z " fill="#323232" transform="translate(417,54)"/>
<path d="M0 0 C5.63376515 4.73748433 8.41761072 9.31533216 10.75 16.3125 C10.75 20.6025 10.75 24.8925 10.75 29.3125 C-1.46 29.6425 -13.67 29.9725 -26.25 30.3125 C-22.12258263 34.43991737 -20.44842378 35.44828396 -14.9375 35.5625 C-10.66558243 35.54169521 -8.02348744 34.330877 -4.25 32.3125 C-1.27459238 32.50800933 -0.27817382 33.28530301 1.890625 35.37890625 C2.58671875 36.20261719 3.2828125 37.02632812 4 37.875 C4.70640625 38.70128906 5.4128125 39.52757812 6.140625 40.37890625 C6.67171875 41.01699219 7.2028125 41.65507813 7.75 42.3125 C3.33548282 47.43903608 -1.37537325 50.79319775 -8.27587891 51.52832031 C-20.04051619 52.24008727 -29.34088151 51.87020423 -38.625 44.0625 C-44.9745503 37.99843336 -46.92039767 32.25653496 -47.5 23.5625 C-47.39246603 16.43837462 -44.75495648 9.79150113 -40.25 4.3125 C-28.26810041 -6.18424817 -14.05188673 -7.29617195 0 0 Z M-26.25 14.3125 C-26.58 15.6325 -26.91 16.9525 -27.25 18.3125 C-20.65 18.3125 -14.05 18.3125 -7.25 18.3125 C-9.11385935 13.05023372 -9.11385935 13.05023372 -13.25 10.3125 C-19.04090582 9.66906602 -22.1203082 9.80738167 -26.25 14.3125 Z " fill="#323232" transform="translate(276.25,57.6875)"/>
<path d="M0 0 C0.99 0.99 1.98 1.98 3 3 C1.02 6.96 -0.96 10.92 -3 15 C-8 14 -8 14 -11 13 C-13.57265818 12.92970879 -16.11641431 12.90629168 -18.6875 12.9375 C-19.38939453 12.94201172 -20.09128906 12.94652344 -20.81445312 12.95117188 C-22.54300538 12.96293073 -24.27151365 12.98086546 -26 13 C-25.67 13.99 -25.34 14.98 -25 16 C-23.00576038 16.78745809 -23.00576038 16.78745809 -20.5546875 17.17578125 C-19.64203125 17.36462891 -18.729375 17.55347656 -17.7890625 17.74804688 C-15.87111945 18.11955193 -13.95185737 18.48432119 -12.03125 18.84179688 C-5.66490525 20.17480603 -1.35694808 22.06024825 3 27 C5.09305576 31.18611152 4.42364608 36.44132948 4 41 C1.32657236 46.75815185 -2.81269651 49.66756335 -8.59765625 52.0859375 C-12.97739975 53.26258501 -17.04527193 53.3831176 -21.5625 53.375 C-22.44204346 53.37411377 -23.32158691 53.37322754 -24.2277832 53.37231445 C-31.48343262 53.24164776 -38.46169589 52.41178522 -45 49 C-46 46 -46 46 -44.78515625 43.08203125 C-44.21667969 42.00308594 -43.64820313 40.92414063 -43.0625 39.8125 C-42.49660156 38.72582031 -41.93070313 37.63914063 -41.34765625 36.51953125 C-40.90292969 35.68808594 -40.45820312 34.85664062 -40 34 C-38.76636719 34.433125 -38.76636719 34.433125 -37.5078125 34.875 C-26.32040508 38.82502867 -26.32040508 38.82502867 -15 37 C-15 36.34 -15 35.68 -15 35 C-16.051875 34.731875 -17.10375 34.46375 -18.1875 34.1875 C-18.91066406 34.00316406 -19.63382813 33.81882813 -20.37890625 33.62890625 C-22.31612518 33.16408919 -24.26336031 32.74057364 -26.21484375 32.33984375 C-37.89164011 29.89213042 -37.89164011 29.89213042 -42 26 C-44.69363853 21.2412386 -45.59316755 17.43736917 -45 12 C-43.11789008 6.57509492 -39.88194653 2.91883576 -35 0 C-23.18440476 -4.38771061 -11.94655971 -3.73138048 0 0 Z " fill="#323232" transform="translate(593,56)"/>
<path d="M0 0 C5.17578125 4.39453125 5.17578125 4.39453125 7 6 C7.52005615 6.37970947 8.0401123 6.75941895 8.57592773 7.15063477 C11.73715725 11.25595168 10.68176537 17.78861495 10.72070312 22.83105469 C10.7496697 25.09913785 10.8425829 27.35885425 10.9375 29.625 C11.16496971 40.26582144 11.16496971 40.26582144 7.94335938 45.06152344 C5.73480118 47.27267993 3.54776973 49.19581012 1 51 C-4.17578125 46.60546875 -4.17578125 46.60546875 -6 45 C-6.52005615 44.62029053 -7.0401123 44.24058105 -7.57592773 43.84936523 C-10.73715725 39.74404832 -9.68176537 33.21138505 -9.72070312 28.16894531 C-9.7496697 25.90086215 -9.8425829 23.64114575 -9.9375 21.375 C-10.16496971 10.73417856 -10.16496971 10.73417856 -6.94335938 5.93847656 C-4.73480118 3.72732007 -2.54776973 1.80418988 0 0 Z " fill="#54B63D" transform="translate(22,73)"/>
<path d="M0 0 C5.17578125 4.39453125 5.17578125 4.39453125 7 6 C7.52005615 6.37970947 8.0401123 6.75941895 8.57592773 7.15063477 C11.73715725 11.25595168 10.68176537 17.78861495 10.72070312 22.83105469 C10.7496697 25.09913785 10.8425829 27.35885425 10.9375 29.625 C11.16496971 40.26582144 11.16496971 40.26582144 7.94335938 45.06152344 C5.73480118 47.27267993 3.54776973 49.19581012 1 51 C-4.17578125 46.60546875 -4.17578125 46.60546875 -6 45 C-6.52005615 44.62029053 -7.0401123 44.24058105 -7.57592773 43.84936523 C-10.73715725 39.74404832 -9.68176537 33.21138505 -9.72070312 28.16894531 C-9.7496697 25.90086215 -9.8425829 23.64114575 -9.9375 21.375 C-10.16496971 10.73417856 -10.16496971 10.73417856 -6.94335938 5.93847656 C-4.73480118 3.72732007 -2.54776973 1.80418988 0 0 Z " fill="#61C71E" transform="translate(22,19)"/>
<path d="M0 0 C4.2074374 2.03467884 7.71709648 3.78718271 10 8 C10.83554391 12.86975911 10.94718073 17.60735745 10.89208984 22.53955078 C10.87507596 24.86461903 10.93256159 27.17981122 10.99609375 29.50390625 C11.0597502 36.28049122 11.09349893 41.90246852 6.1953125 47.1328125 C4.10986328 48.94970703 4.10986328 48.94970703 2 50 C-1.98472961 49.43481691 -4.05086558 47.64720249 -6.74713135 44.79266357 C-8.86554042 41.76154393 -8.89667264 38.602213 -8.8671875 35.0390625 C-8.88291306 33.91496475 -8.88291306 33.91496475 -8.8989563 32.76815796 C-8.91174536 31.18988984 -8.90918838 29.61143044 -8.89208984 28.03320312 C-8.87507676 25.63581599 -8.93256289 23.24800581 -8.99609375 20.8515625 C-9.09298828 9.71043689 -9.09298828 9.71043689 -6.15722656 5.11621094 C-4.20171916 3.15552338 -2.3102163 1.51892949 0 0 Z " fill="#E31B00" transform="translate(87,19)"/>
<path d="M0 0 C8.96081552 7.63328729 8.96081552 7.63328729 9.35400391 11.31298828 C9.40797607 12.73165797 9.44784275 14.15090704 9.4765625 15.5703125 C9.50077774 16.70289993 9.50077774 16.70289993 9.52548218 17.85836792 C9.55316812 19.46049825 9.5746107 21.06274666 9.59033203 22.66503906 C9.62460175 25.09674102 9.71229186 27.52288013 9.80078125 29.953125 C10.02463089 41.37122613 10.02463089 41.37122613 7.17480469 45.90136719 C5.2138402 47.86406169 3.32346677 49.49194598 1 51 C-4.17578125 46.60546875 -4.17578125 46.60546875 -6 45 C-6.52005615 44.62029053 -7.0401123 44.24058105 -7.57592773 43.84936523 C-10.73715725 39.74404832 -9.68176537 33.21138505 -9.72070312 28.16894531 C-9.7496697 25.90086215 -9.8425829 23.64114575 -9.9375 21.375 C-10.16496971 10.73417856 -10.16496971 10.73417856 -6.94335938 5.93847656 C-4.73480118 3.72732007 -2.54776973 1.80418988 0 0 Z " fill="#D22F00" transform="translate(122,73)"/>
<path d="M0 0 C4.2074374 2.03467884 7.71709648 3.78718271 10 8 C10.83554391 12.86975911 10.94718073 17.60735745 10.89208984 22.53955078 C10.87507596 24.86461903 10.93256159 27.17981122 10.99609375 29.50390625 C11.09294211 40.30816963 11.09294211 40.30816963 8.15722656 44.85253906 C6.20146953 46.81347691 4.29989954 48.46433859 2 50 C-2.2074374 47.96532116 -5.71709648 46.21281729 -8 42 C-8.83554391 37.13024089 -8.94718073 32.39264255 -8.89208984 27.46044922 C-8.87507596 25.13538097 -8.93256159 22.82018878 -8.99609375 20.49609375 C-9.09294211 9.69183037 -9.09294211 9.69183037 -6.15722656 5.14746094 C-4.20146953 3.18652309 -2.29989954 1.53566141 0 0 Z " fill="#55BB3D" transform="translate(56,74)"/>
<path d="M0 0 C0.69079451 5.61194616 1.22529365 10.77513471 -1.57177734 15.85400391 C-3.79698014 18.54396102 -6.14521253 20.92100981 -8.6875 23.3125 C-9.48478516 24.16005859 -10.28207031 25.00761719 -11.10351562 25.88085938 C-15.97780795 30.65496862 -19.22124512 32.53075837 -26.14453125 32.54296875 C-28.09988809 32.4053114 -30.05448742 32.2394801 -32 32 C-32.69079451 26.38805384 -33.22529365 21.22486529 -30.42822266 16.14599609 C-28.20301986 13.45603898 -25.85478747 11.07899019 -23.3125 8.6875 C-22.51521484 7.83994141 -21.71792969 6.99238281 -20.89648438 6.11914062 C-14.29417511 -0.347469 -9.04489754 -1.11336877 0 0 Z " fill="#65CF1B" transform="translate(66,28)"/>
<path d="M0 0 C3.647667 2.54944467 6.3375575 5.45007667 9 9 C8.06409496 10.1055189 7.12620142 11.20935453 6.1875 12.3125 C5.66542969 12.92738281 5.14335938 13.54226562 4.60546875 14.17578125 C4.07566406 14.77777344 3.54585937 15.37976563 3 16 C2.5771875 16.556875 2.154375 17.11375 1.71875 17.6875 C-1.78325002 20.36175456 -6.23408787 19.69549586 -10.453125 19.62109375 C-15.35048331 18.76351669 -17.58070571 16.75445362 -20.83984375 13.140625 C-22 11 -22 11 -21.859375 8.96875 C-17.74652596 -0.45341326 -9.56286413 -2.32610209 0 0 Z " fill="#D42602" transform="translate(112,62)"/>
<path d="M0 0 C4.89735831 0.85757706 7.12758071 2.86664013 10.38671875 6.48046875 C11.546875 8.62109375 11.546875 8.62109375 11.40625 10.65234375 C9.64395586 14.68959942 7.33555361 17.3442142 3.546875 19.62109375 C-1.3568709 20.77215267 -5.55512297 20.81249965 -10.453125 19.62109375 C-14.100792 17.07164908 -16.7906825 14.17101708 -19.453125 10.62109375 C-18.51721996 9.51557485 -17.57932642 8.41173922 -16.640625 7.30859375 C-16.11855469 6.69371094 -15.59648437 6.07882813 -15.05859375 5.4453125 C-14.52878906 4.84332031 -13.99898437 4.24132812 -13.453125 3.62109375 C-13.0303125 3.06421875 -12.6075 2.50734375 -12.171875 1.93359375 C-8.66987498 -0.74066081 -4.21903713 -0.07440211 0 0 Z " fill="#59BC2F" transform="translate(43.453125,61.37890625)"/>
<path d="M0 0 C1.2684375 0.01804687 2.536875 0.03609375 3.84375 0.0546875 C5.74640625 0.02761719 5.74640625 0.02761719 7.6875 0 C11.34375 0.9296875 11.34375 0.9296875 17.34375 7.9296875 C8.43375 7.9296875 -0.47625 7.9296875 -9.65625 7.9296875 C-3.65625 0.9296875 -3.65625 0.9296875 0 0 Z " fill="#CC3601" transform="translate(100.65625,116.0703125)"/>
<path d="M0 0 C8.91 0 17.82 0 27 0 C21 7 21 7 17.34375 7.9296875 C16.0753125 7.91164063 14.806875 7.89359375 13.5 7.875 C12.2315625 7.89304687 10.963125 7.91109375 9.65625 7.9296875 C6 7 6 7 0 0 Z " fill="#EA1400" transform="translate(92,19)"/>
<path d="M0 0 C0.99 0.33 1.98 0.66 3 1 C0.36 3.64 -2.28 6.28 -5 9 C-4.05125 10.093125 -3.1025 11.18625 -2.125 12.3125 C-0.23045652 14.49534358 1.3889658 16.5834487 3 19 C0 19 0 19 -1.82421875 17.46875 C-3.54947917 15.64583333 -5.27473958 13.82291667 -7 12 C-9.64 13.98 -12.28 15.96 -15 18 C-15.66 17.67 -16.32 17.34 -17 17 C-17 12.05 -17 7.1 -17 2 C-14.36 3.98 -11.72 5.96 -9 8 C-7.68712379 6.85459775 -6.37470979 5.70866567 -5.0625 4.5625 C-4.33160156 3.92441406 -3.60070312 3.28632812 -2.84765625 2.62890625 C-1.87860647 1.77458541 -0.91348825 0.91348825 0 0 Z " fill="#2C342C" transform="translate(30,62)"/>
<path d="M0 0 C2.31 1.98 4.62 3.96 7 6 C2.41015625 11.46875 2.41015625 11.46875 1 13 C0.67 13 0.34 13 0 13 C0 8.71 0 4.42 0 0 Z " fill="#5ABE2F" transform="translate(14,65)"/>
<path d="M0 0 C0.33 0 0.66 0 1 0 C1.33 4.29 1.66 8.58 2 13 C3.32 11.68 4.64 10.36 6 9 C6.99 9.33 7.98 9.66 9 10 C6.69 11.98 4.38 13.96 2 16 C1.34 15.67 0.68 15.34 0 15 C0 10.05 0 5.1 0 0 Z " fill="#37542D" transform="translate(13,64)"/>
<path d="M0 0 C0.99 0.33 1.98 0.66 3 1 C0.69 3.31 -1.62 5.62 -4 8 C-4.66 7.34 -5.32 6.68 -6 6 C-4.02 4.02 -2.04 2.04 0 0 Z " fill="#3C2B27" transform="translate(119,73)"/>
</svg>
